<svg width="512" height="512" viewBox="0 0 512 512" fill="none" xmlns="http://www.w3.org/2000/svg">
<rect width="512" height="512" fill="#1E1E1E"/>
<rect width="512" height="512" fill="#1839A4"/>
<path d="M56.12 512V505.8C63.9733 504.973 71.8267 501.253 79.68 494.64C87.9467 487.613 95.5933 478.933 102.62 468.6C109.647 458.267 115.02 448.14 118.74 438.22L282.42 37.7H288L449.2 438.22C467.387 483.273 487.64 505.8 509.96 505.8H511.82V512H313.42V505.8H315.9C334.5 505.8 346.9 500.22 353.1 489.06C359.713 477.487 358.887 461.573 350.62 441.32L313.42 348.94H164L129.28 435.12C121.84 452.893 122.667 469.013 131.76 483.48C141.267 497.533 156.353 504.973 177.02 505.8V512H56.12ZM167.1 340.88H310.32L239.64 162.32L167.1 340.88Z" fill="white"/>
</svg>
