<svg width="87" height="27" viewBox="0 0 87 27" fill="none" xmlns="http://www.w3.org/2000/svg">
<path d="M-0.000421882 25.2158V24.8958C0.404911 24.8532 0.810245 24.6612 1.21558 24.3198C1.64224 23.9572 2.03691 23.5092 2.39958 22.9758C2.76224 22.4425 3.03958 21.9198 3.23158 21.4078L11.6796 0.735819H11.9676L20.2876 21.4078C21.2262 23.7332 22.2716 24.8958 23.4236 24.8958H23.5196V25.2158H13.2796V24.8958H13.4076C14.3676 24.8958 15.0076 24.6078 15.3276 24.0318C15.6689 23.4345 15.6262 22.6132 15.1996 21.5678L13.2796 16.7998H5.56758L3.77558 21.2478C3.39158 22.1652 3.43424 22.9972 3.90358 23.7438C4.39424 24.4692 5.17291 24.8532 6.23958 24.8958V25.2158H-0.000421882ZM5.72758 16.3838H13.1196L9.47158 7.16782L5.72758 16.3838ZM34.6048 26.1118L34.5728 21.9838C34.0182 23.0718 33.1755 23.9572 32.0448 24.6398C30.9142 25.3225 29.7195 25.6638 28.4608 25.6638C27.0315 25.6638 25.8795 25.1945 25.0048 24.2558C24.1515 23.3172 23.7248 22.0798 23.7248 20.5438V11.8398C23.7248 11.0292 23.5648 10.3998 23.2448 9.95182C22.9248 9.50382 22.2208 9.27982 21.1328 9.27982V8.95982H24.3648C25.4528 8.95982 26.2848 8.84249 26.8608 8.60782C27.3942 8.37315 27.7675 8.08515 27.9808 7.74382H28.3008V20.8638C28.3008 21.9305 28.5142 22.7838 28.9408 23.4238C29.3675 24.0638 29.9222 24.3838 30.6048 24.3838C31.2662 24.3838 31.9488 24.1065 32.6528 23.5518C33.3568 22.9758 33.9755 22.2078 34.5088 21.2478V11.8398C34.5088 11.0718 34.3168 10.4532 33.9328 9.98382C33.5488 9.51449 32.8875 9.27982 31.9488 9.27982V8.95982H35.1808C36.2688 8.95982 37.1008 8.84249 37.6768 8.60782C38.2315 8.37315 38.6155 8.08515 38.8288 7.74382H39.1488L39.1168 22.3358C39.1168 23.1038 39.3515 23.7332 39.8208 24.2238C40.2902 24.6932 40.9088 24.9278 41.6768 24.9278V25.2158H38.5088C37.9542 25.2158 37.4635 25.2265 37.0368 25.2478C36.6102 25.2905 36.2582 25.3332 35.9808 25.3758C35.4048 25.5038 34.9995 25.7492 34.7648 26.1118H34.6048ZM41.2988 25.2158V24.8958C42.0668 24.8958 42.6855 24.6718 43.1548 24.2238C43.6455 23.7545 43.8908 23.1252 43.8908 22.3358V4.09582C43.8908 3.32782 43.6455 2.70915 43.1548 2.23982C42.6855 1.77049 42.0668 1.53582 41.2988 1.53582V1.21582H44.5628C45.6508 1.21582 46.4828 1.09849 47.0588 0.863819C47.5922 0.629153 47.9655 0.341153 48.1788 -0.000181198H48.4988V22.3358C48.4988 23.1252 48.7335 23.7545 49.2028 24.2238C49.6935 24.6718 50.3228 24.8958 51.0908 24.8958V25.2158H41.2988ZM50.7728 25.2158V24.8958H50.8048C51.5728 24.8958 52.1915 24.6612 52.6608 24.1918C53.1302 23.7225 53.3648 23.1038 53.3648 22.3358V11.8398C53.3648 11.0292 53.1942 10.3998 52.8528 9.95182C52.5328 9.50382 51.8395 9.27982 50.7728 9.27982V8.95982H54.0368C55.1248 8.95982 55.9568 8.84249 56.5328 8.60782C57.0662 8.37315 57.4395 8.08515 57.6528 7.74382H57.9728V22.3358C57.9728 23.1038 58.2075 23.7225 58.6768 24.1918C59.1462 24.6612 59.7648 24.8958 60.5328 24.8958H60.5648V25.2158H50.7728ZM55.6368 5.72782C54.8688 5.72782 54.2288 5.48249 53.7168 4.99182C53.2262 4.47982 52.9808 3.83982 52.9808 3.07182C52.9808 2.30382 53.2262 1.67449 53.7168 1.18382C54.2288 0.671819 54.8688 0.415819 55.6368 0.415819C56.3835 0.415819 57.0022 0.671819 57.4928 1.18382C58.0048 1.69582 58.2608 2.32515 58.2608 3.07182C58.2608 3.81849 58.0048 4.44782 57.4928 4.95982C57.0022 5.47182 56.3835 5.72782 55.6368 5.72782ZM66.5241 25.6638C65.4147 25.6638 64.5081 25.3118 63.8041 24.6078C63.1001 23.9038 62.7481 22.9865 62.7481 21.8558V9.53582H60.0281V9.11982C61.5001 9.01315 62.8121 8.54382 63.9641 7.71182C65.1374 6.87982 66.0974 5.75982 66.8441 4.35182H67.3561V8.95982H71.6121L71.2921 9.53582H67.3561V21.1518C67.3561 22.8585 67.9321 23.7118 69.0841 23.7118C69.4681 23.7118 69.9054 23.5945 70.3961 23.3598C70.9081 23.1252 71.3881 22.8158 71.8361 22.4318V22.7518C71.1321 23.6478 70.3001 24.3625 69.3401 24.8958C68.3801 25.4078 67.4414 25.6638 66.5241 25.6638ZM79.1256 25.5998C77.6536 25.5998 76.3416 25.2372 75.1896 24.5118C74.0589 23.7865 73.1736 22.7838 72.5336 21.5038C71.8936 20.2025 71.5736 18.7198 71.5736 17.0558C71.5736 15.3492 71.9256 13.8558 72.6296 12.5758C73.3336 11.2958 74.2936 10.3038 75.5096 9.59982C76.7469 8.87449 78.1442 8.51182 79.7016 8.51182C81.0029 8.51182 82.1549 8.76782 83.1576 9.27982C84.1816 9.79182 84.9922 10.5172 85.5896 11.4558C86.2082 12.3732 86.5602 13.4398 86.6456 14.6558L86.6776 15.1358H75.9256V15.2958C75.9256 17.5572 76.4269 19.3705 77.4296 20.7358C78.4322 22.0798 79.7762 22.7518 81.4616 22.7518C82.4856 22.7518 83.4562 22.5065 84.3736 22.0158C85.3122 21.5038 86.0696 20.8212 86.6456 19.9678L86.9336 20.0638C86.5709 21.1518 86.0056 22.1118 85.2376 22.9438C84.4696 23.7758 83.5629 24.4265 82.5176 24.8958C81.4722 25.3652 80.3416 25.5998 79.1256 25.5998ZM75.9576 14.6558H82.4536C82.4536 12.9705 82.1762 11.6052 81.6216 10.5598C81.0882 9.51449 80.3309 8.99182 79.3496 8.99182C78.4109 8.99182 77.6322 9.50382 77.0136 10.5278C76.3949 11.5518 76.0429 12.9278 75.9576 14.6558Z" fill="white"/>
</svg>
