<svg width="120" height="32" viewBox="0 0 120 32" fill="none" xmlns="http://www.w3.org/2000/svg">
<rect width="120" height="32" fill="#1E1E1E"/>
<rect width="120" height="32" fill="#1839A4"/>
<path d="M30.232 30V29.68C30.6373 29.6373 31.0427 29.4453 31.448 29.104C31.8747 28.7413 32.2693 28.2933 32.632 27.76C32.9947 27.2267 33.272 26.704 33.464 26.192L41.912 5.52H42.2L50.52 26.192C51.4587 28.5173 52.504 29.68 53.656 29.68H53.752V30H43.512V29.68H43.64C44.6 29.68 45.24 29.392 45.56 28.816C45.9013 28.2187 45.8587 27.3973 45.432 26.352L43.512 21.584H35.8L34.008 26.032C33.624 26.9493 33.6667 27.7813 34.136 28.528C34.6267 29.2533 35.4053 29.6373 36.472 29.68V30H30.232ZM35.96 21.168H43.352L39.704 11.952L35.96 21.168ZM64.8373 30.896L64.8053 26.768C64.2506 27.856 63.4079 28.7413 62.2773 29.424C61.1466 30.1067 59.9519 30.448 58.6933 30.448C57.2639 30.448 56.1119 29.9787 55.2373 29.04C54.3839 28.1013 53.9573 26.864 53.9573 25.328V16.624C53.9573 15.8133 53.7973 15.184 53.4773 14.736C53.1573 14.288 52.4533 14.064 51.3652 14.064V13.744H54.5973C55.6853 13.744 56.5173 13.6267 57.0933 13.392C57.6266 13.1573 57.9999 12.8693 58.2133 12.528H58.5333V25.648C58.5333 26.7147 58.7466 27.568 59.1733 28.208C59.5999 28.848 60.1546 29.168 60.8373 29.168C61.4986 29.168 62.1813 28.8907 62.8853 28.336C63.5893 27.76 64.2079 26.992 64.7413 26.032V16.624C64.7413 15.856 64.5493 15.2373 64.1653 14.768C63.7813 14.2987 63.1199 14.064 62.1813 14.064V13.744H65.4133C66.5013 13.744 67.3333 13.6267 67.9093 13.392C68.4639 13.1573 68.8479 12.8693 69.0613 12.528H69.3813L69.3493 27.12C69.3493 27.888 69.5839 28.5173 70.0533 29.008C70.5226 29.4773 71.1413 29.712 71.9093 29.712V30H68.7413C68.1866 30 67.6959 30.0107 67.2693 30.032C66.8426 30.0747 66.4906 30.1173 66.2133 30.16C65.6373 30.288 65.2319 30.5333 64.9973 30.896H64.8373ZM71.5312 30V29.68C72.2993 29.68 72.9179 29.456 73.3873 29.008C73.8779 28.5387 74.1233 27.9093 74.1233 27.12V8.88C74.1233 8.112 73.8779 7.49333 73.3873 7.024C72.9179 6.55467 72.2993 6.32 71.5312 6.32V6H74.7953C75.8833 6 76.7153 5.88266 77.2913 5.648C77.8246 5.41333 78.1979 5.12533 78.4113 4.784H78.7313V27.12C78.7313 27.9093 78.9659 28.5387 79.4353 29.008C79.9259 29.456 80.5553 29.68 81.3233 29.68V30H71.5312ZM81.0053 30V29.68H81.0373C81.8053 29.68 82.4239 29.4453 82.8932 28.976C83.3626 28.5067 83.5973 27.888 83.5973 27.12V16.624C83.5973 15.8133 83.4266 15.184 83.0853 14.736C82.7653 14.288 82.0719 14.064 81.0053 14.064V13.744H84.2693C85.3573 13.744 86.1893 13.6267 86.7653 13.392C87.2986 13.1573 87.6719 12.8693 87.8853 12.528H88.2053V27.12C88.2053 27.888 88.4399 28.5067 88.9093 28.976C89.3786 29.4453 89.9973 29.68 90.7653 29.68H90.7973V30H81.0053ZM85.8693 10.512C85.1013 10.512 84.4613 10.2667 83.9493 9.776C83.4586 9.264 83.2133 8.624 83.2133 7.856C83.2133 7.088 83.4586 6.45867 83.9493 5.968C84.4613 5.456 85.1013 5.2 85.8693 5.2C86.6159 5.2 87.2346 5.456 87.7253 5.968C88.2373 6.48 88.4933 7.10933 88.4933 7.856C88.4933 8.60267 88.2373 9.232 87.7253 9.744C87.2346 10.256 86.6159 10.512 85.8693 10.512ZM96.7565 30.448C95.6472 30.448 94.7405 30.096 94.0365 29.392C93.3325 28.688 92.9805 27.7707 92.9805 26.64V14.32H90.2605V13.904C91.7325 13.7973 93.0445 13.328 94.1965 12.496C95.3698 11.664 96.3298 10.544 97.0765 9.136H97.5885V13.744H101.845L101.525 14.32H97.5885V25.936C97.5885 27.6427 98.1645 28.496 99.3165 28.496C99.7005 28.496 100.138 28.3787 100.629 28.144C101.141 27.9093 101.621 27.6 102.069 27.216V27.536C101.365 28.432 100.533 29.1467 99.5725 29.68C98.6125 30.192 97.6738 30.448 96.7565 30.448ZM109.358 30.384C107.886 30.384 106.574 30.0213 105.422 29.296C104.291 28.5707 103.406 27.568 102.766 26.288C102.126 24.9867 101.806 23.504 101.806 21.84C101.806 20.1333 102.158 18.64 102.862 17.36C103.566 16.08 104.526 15.088 105.742 14.384C106.979 13.6587 108.377 13.296 109.934 13.296C111.235 13.296 112.387 13.552 113.39 14.064C114.414 14.576 115.225 15.3013 115.822 16.24C116.441 17.1573 116.793 18.224 116.878 19.44L116.91 19.92H106.158V20.08C106.158 22.3413 106.659 24.1547 107.662 25.52C108.665 26.864 110.009 27.536 111.694 27.536C112.718 27.536 113.689 27.2907 114.606 26.8C115.545 26.288 116.302 25.6053 116.878 24.752L117.166 24.848C116.803 25.936 116.238 26.896 115.47 27.728C114.702 28.56 113.795 29.2107 112.75 29.68C111.705 30.1493 110.574 30.384 109.358 30.384ZM106.19 19.44H112.686C112.686 17.7547 112.409 16.3893 111.854 15.344C111.321 14.2987 110.563 13.776 109.582 13.776C108.643 13.776 107.865 14.288 107.246 15.312C106.627 16.336 106.275 17.712 106.19 19.44Z" fill="white"/>
</svg>
